<mxfile host="Electron" agent="Mozilla/5.0 (Windows NT 10.0; Win64; x64) AppleWebKit/537.36 (KHTML, like Gecko) draw.io/26.0.9 Chrome/128.0.6613.186 Electron/32.2.5 Safari/537.36" version="26.0.9">
  <diagram id="WI9T0HZ2pTsCkuznbFz-" name="Page-1">
    <mxGraphModel dx="4728" dy="823" grid="1" gridSize="10" guides="1" tooltips="1" connect="1" arrows="1" fold="1" page="1" pageScale="1" pageWidth="1169" pageHeight="827" math="0" shadow="0">
      <root>
        <mxCell id="0" />
        <mxCell id="1" parent="0" />
        <mxCell id="Rqc-IWWvBPbqLcRPpQH2-30" value="" style="shape=ext;double=1;rounded=1;whiteSpace=wrap;html=1;shadow=0;fontSize=18;fillColor=none;strokeColor=#FFFFFF;opacity=60;dashed=1;dashPattern=12 12;" parent="1" vertex="1">
          <mxGeometry x="-3482" y="154" width="520" height="520" as="geometry" />
        </mxCell>
        <mxCell id="Rqc-IWWvBPbqLcRPpQH2-54" value="&lt;b&gt;Ридер&lt;/b&gt;" style="html=1;whiteSpace=wrap;container=1;recursiveResize=0;collapsible=0;shadow=0;fontSize=18;strokeColor=#000000;fillColor=#FFFFFF;" parent="1" vertex="1">
          <mxGeometry x="-3442" y="354" width="160" height="120" as="geometry" />
        </mxCell>
        <mxCell id="Rqc-IWWvBPbqLcRPpQH2-53" value="" style="fontColor=#0066CC;verticalAlign=top;verticalLabelPosition=bottom;labelPosition=center;align=center;html=1;outlineConnect=0;fillColor=#CCCCCC;strokeColor=#6881B3;gradientColor=none;gradientDirection=north;strokeWidth=2;shape=mxgraph.networks.biometric_reader;shadow=0;fontSize=18;" parent="Rqc-IWWvBPbqLcRPpQH2-54" vertex="1">
          <mxGeometry x="10" y="5" width="26" height="43.33" as="geometry" />
        </mxCell>
        <mxCell id="Rqc-IWWvBPbqLcRPpQH2-29" value="" style="shape=ext;double=1;rounded=1;whiteSpace=wrap;html=1;shadow=0;fontSize=18;fillColor=none;strokeColor=#FFFFFF;opacity=60;dashed=1;dashPattern=12 12;" parent="1" vertex="1">
          <mxGeometry x="-2882" y="154" width="520" height="520" as="geometry" />
        </mxCell>
        <mxCell id="Rqc-IWWvBPbqLcRPpQH2-7" value="" style="html=1;whiteSpace=wrap;container=1;recursiveResize=0;collapsible=0;shadow=0;fillColor=#FFFFFF;" parent="1" vertex="1">
          <mxGeometry x="-2602" y="234" width="200" height="400" as="geometry" />
        </mxCell>
        <mxCell id="Rqc-IWWvBPbqLcRPpQH2-9" value="" style="sketch=0;aspect=fixed;html=1;points=[];align=center;image;fontSize=12;image=img/lib/mscae/Azure_Database_for_PostgreSQL_servers.svg;shadow=0;" parent="Rqc-IWWvBPbqLcRPpQH2-7" vertex="1">
          <mxGeometry x="10" y="10" width="38" height="50" as="geometry" />
        </mxCell>
        <mxCell id="Rqc-IWWvBPbqLcRPpQH2-20" value="&lt;font style=&quot;font-size: 18px&quot;&gt;PostgreSQL&lt;/font&gt;" style="text;strokeColor=none;fillColor=none;html=1;fontSize=24;fontStyle=1;verticalAlign=middle;align=center;shadow=0;" parent="Rqc-IWWvBPbqLcRPpQH2-7" vertex="1">
          <mxGeometry x="50" y="180" width="100" height="40" as="geometry" />
        </mxCell>
        <mxCell id="Rqc-IWWvBPbqLcRPpQH2-21" value="" style="html=1;whiteSpace=wrap;container=1;recursiveResize=0;collapsible=0;shadow=0;" parent="1" vertex="1">
          <mxGeometry x="-3242" y="354" width="240" height="120" as="geometry" />
        </mxCell>
        <mxCell id="Rqc-IWWvBPbqLcRPpQH2-23" value="" style="sketch=0;aspect=fixed;html=1;points=[];align=center;image;fontSize=12;image=img/lib/mscae/Person.svg;shadow=0;" parent="Rqc-IWWvBPbqLcRPpQH2-21" vertex="1">
          <mxGeometry x="10" y="10" width="27" height="36.49" as="geometry" />
        </mxCell>
        <mxCell id="Rqc-IWWvBPbqLcRPpQH2-24" value="&lt;span style=&quot;font-size: 18px&quot;&gt;Проходная точка&lt;/span&gt;" style="text;strokeColor=none;fillColor=none;html=1;fontSize=24;fontStyle=1;verticalAlign=middle;align=center;shadow=0;" parent="Rqc-IWWvBPbqLcRPpQH2-21" vertex="1">
          <mxGeometry x="70" y="40" width="100" height="40" as="geometry" />
        </mxCell>
        <mxCell id="Rqc-IWWvBPbqLcRPpQH2-25" value="" style="html=1;whiteSpace=wrap;container=1;recursiveResize=0;collapsible=0;shadow=0;" parent="1" vertex="1">
          <mxGeometry x="-3242" y="514" width="240" height="120" as="geometry" />
        </mxCell>
        <mxCell id="Rqc-IWWvBPbqLcRPpQH2-27" value="" style="sketch=0;aspect=fixed;html=1;points=[];align=center;image;fontSize=12;image=img/lib/mscae/Cache_Redis_Product.svg;shadow=0;" parent="Rqc-IWWvBPbqLcRPpQH2-25" vertex="1">
          <mxGeometry x="10" y="10" width="35.71" height="30" as="geometry" />
        </mxCell>
        <mxCell id="Rqc-IWWvBPbqLcRPpQH2-28" value="&lt;font style=&quot;font-size: 18px&quot;&gt;Локальная БД&lt;/font&gt;" style="text;strokeColor=none;fillColor=none;html=1;fontSize=24;fontStyle=1;verticalAlign=middle;align=center;shadow=0;" parent="Rqc-IWWvBPbqLcRPpQH2-25" vertex="1">
          <mxGeometry x="70" y="40" width="100" height="40" as="geometry" />
        </mxCell>
        <mxCell id="Rqc-IWWvBPbqLcRPpQH2-31" value="&lt;b&gt;Админ&lt;/b&gt;" style="html=1;whiteSpace=wrap;container=1;recursiveResize=0;collapsible=0;shadow=0;fontSize=18;fillColor=#FFFFFF;" parent="1" vertex="1">
          <mxGeometry x="-3242" y="194" width="240" height="120" as="geometry" />
        </mxCell>
        <mxCell id="Rqc-IWWvBPbqLcRPpQH2-52" value="" style="sketch=0;aspect=fixed;html=1;points=[];align=center;image;fontSize=12;image=img/lib/mscae/Shared_Dashboard.svg;shadow=0;strokeColor=#000000;fillColor=none;" parent="Rqc-IWWvBPbqLcRPpQH2-31" vertex="1">
          <mxGeometry x="10" y="10" width="40" height="32.8" as="geometry" />
        </mxCell>
        <mxCell id="Rqc-IWWvBPbqLcRPpQH2-56" value="Клиент" style="text;strokeColor=none;fillColor=none;html=1;fontSize=24;fontStyle=1;verticalAlign=middle;align=center;shadow=0;" parent="1" vertex="1">
          <mxGeometry x="-3472" y="164" width="100" height="40" as="geometry" />
        </mxCell>
        <mxCell id="Rqc-IWWvBPbqLcRPpQH2-57" value="Сервер" style="text;strokeColor=none;fillColor=none;html=1;fontSize=24;fontStyle=1;verticalAlign=middle;align=center;shadow=0;" parent="1" vertex="1">
          <mxGeometry x="-2862" y="164" width="100" height="40" as="geometry" />
        </mxCell>
        <mxCell id="Rqc-IWWvBPbqLcRPpQH2-59" value="" style="edgeStyle=orthogonalEdgeStyle;fontSize=12;html=1;endArrow=blockThin;endFill=1;rounded=0;strokeWidth=2;endSize=4;startSize=4;dashed=0;strokeColor=#4284F3;entryX=0;entryY=0.5;entryDx=0;entryDy=0;" parent="1" source="Rqc-IWWvBPbqLcRPpQH2-30" target="Rqc-IWWvBPbqLcRPpQH2-29" edge="1">
          <mxGeometry width="100" relative="1" as="geometry">
            <mxPoint x="-2132" y="678" as="sourcePoint" />
            <mxPoint x="-2032" y="678" as="targetPoint" />
          </mxGeometry>
        </mxCell>
        <mxCell id="Rqc-IWWvBPbqLcRPpQH2-60" value="" style="edgeStyle=orthogonalEdgeStyle;fontSize=12;html=1;endArrow=blockThin;endFill=1;rounded=0;strokeWidth=2;endSize=4;startSize=4;dashed=0;strokeColor=#4284F3;exitX=-0.005;exitY=0.583;exitDx=0;exitDy=0;exitPerimeter=0;entryX=1.001;entryY=0.583;entryDx=0;entryDy=0;entryPerimeter=0;" parent="1" source="Rqc-IWWvBPbqLcRPpQH2-29" target="Rqc-IWWvBPbqLcRPpQH2-30" edge="1">
          <mxGeometry width="100" relative="1" as="geometry">
            <mxPoint x="-2132" y="678" as="sourcePoint" />
            <mxPoint x="-2032" y="678" as="targetPoint" />
          </mxGeometry>
        </mxCell>
        <mxCell id="Rqc-IWWvBPbqLcRPpQH2-65" value="" style="edgeStyle=orthogonalEdgeStyle;fontSize=12;html=1;endArrow=blockThin;endFill=1;rounded=0;strokeWidth=2;endSize=4;startSize=4;dashed=1;dashPattern=1 3;strokeColor=#9E9E9E;entryX=0.25;entryY=0;entryDx=0;entryDy=0;exitX=0.25;exitY=1;exitDx=0;exitDy=0;" parent="1" source="Rqc-IWWvBPbqLcRPpQH2-21" target="Rqc-IWWvBPbqLcRPpQH2-25" edge="1">
          <mxGeometry width="100" relative="1" as="geometry">
            <mxPoint x="-3042" y="474" as="sourcePoint" />
            <mxPoint x="-3042" y="514" as="targetPoint" />
            <Array as="points">
              <mxPoint x="-3182" y="494" />
              <mxPoint x="-3182" y="494" />
            </Array>
          </mxGeometry>
        </mxCell>
        <mxCell id="Rqc-IWWvBPbqLcRPpQH2-66" value="" style="edgeStyle=orthogonalEdgeStyle;fontSize=12;html=1;endArrow=blockThin;endFill=1;rounded=0;strokeWidth=2;endSize=4;startSize=4;dashed=1;dashPattern=1 3;strokeColor=#9E9E9E;exitX=0.75;exitY=0;exitDx=0;exitDy=0;entryX=0.75;entryY=1;entryDx=0;entryDy=0;" parent="1" source="Rqc-IWWvBPbqLcRPpQH2-25" target="Rqc-IWWvBPbqLcRPpQH2-21" edge="1">
          <mxGeometry width="100" relative="1" as="geometry">
            <mxPoint x="-3000.2799999999997" y="511.96000000000004" as="sourcePoint" />
            <mxPoint x="-3001.3999999999996" y="475.43999999999994" as="targetPoint" />
            <Array as="points">
              <mxPoint x="-3062" y="504" />
              <mxPoint x="-3062" y="504" />
            </Array>
          </mxGeometry>
        </mxCell>
        <mxCell id="Rqc-IWWvBPbqLcRPpQH2-67" value="" style="edgeStyle=orthogonalEdgeStyle;fontSize=12;html=1;endArrow=blockThin;endFill=1;rounded=0;strokeWidth=2;endSize=4;startSize=4;dashed=1;dashPattern=1 3;strokeColor=#9E9E9E;entryX=1;entryY=0.25;entryDx=0;entryDy=0;exitX=0;exitY=0.25;exitDx=0;exitDy=0;" parent="1" source="Rqc-IWWvBPbqLcRPpQH2-21" target="Rqc-IWWvBPbqLcRPpQH2-54" edge="1">
          <mxGeometry width="100" relative="1" as="geometry">
            <mxPoint x="-2972" y="414" as="sourcePoint" />
            <mxPoint x="-2872" y="414" as="targetPoint" />
          </mxGeometry>
        </mxCell>
        <mxCell id="Rqc-IWWvBPbqLcRPpQH2-68" value="" style="edgeStyle=orthogonalEdgeStyle;fontSize=12;html=1;endArrow=blockThin;endFill=1;rounded=0;strokeWidth=2;endSize=4;startSize=4;dashed=1;dashPattern=1 3;strokeColor=#9E9E9E;exitX=1;exitY=0.75;exitDx=0;exitDy=0;entryX=0;entryY=0.75;entryDx=0;entryDy=0;" parent="1" source="Rqc-IWWvBPbqLcRPpQH2-54" target="Rqc-IWWvBPbqLcRPpQH2-21" edge="1">
          <mxGeometry width="100" relative="1" as="geometry">
            <mxPoint x="-3162" y="424" as="sourcePoint" />
            <mxPoint x="-3062" y="424" as="targetPoint" />
          </mxGeometry>
        </mxCell>
        <mxCell id="Rqc-IWWvBPbqLcRPpQH2-69" value="" style="edgeStyle=orthogonalEdgeStyle;fontSize=12;html=1;endArrow=blockThin;endFill=1;rounded=0;strokeWidth=2;endSize=4;startSize=4;dashed=1;dashPattern=1 3;strokeColor=#9E9E9E;entryX=-0.02;entryY=0.364;entryDx=0;entryDy=0;entryPerimeter=0;exitX=0.997;exitY=0.362;exitDx=0;exitDy=0;exitPerimeter=0;" parent="1" source="Rqc-IWWvBPbqLcRPpQH2-33" target="Rqc-IWWvBPbqLcRPpQH2-7" edge="1">
          <mxGeometry width="100" relative="1" as="geometry">
            <mxPoint x="-2522" y="354" as="sourcePoint" />
            <mxPoint x="-2692" y="474" as="targetPoint" />
          </mxGeometry>
        </mxCell>
        <mxCell id="Rqc-IWWvBPbqLcRPpQH2-70" value="" style="edgeStyle=orthogonalEdgeStyle;fontSize=12;html=1;endArrow=blockThin;endFill=1;rounded=0;strokeWidth=2;endSize=4;startSize=4;dashed=1;dashPattern=1 3;strokeColor=#9E9E9E;entryX=1.005;entryY=0.548;entryDx=0;entryDy=0;entryPerimeter=0;exitX=0;exitY=0.548;exitDx=0;exitDy=0;exitPerimeter=0;" parent="1" source="Rqc-IWWvBPbqLcRPpQH2-7" target="Rqc-IWWvBPbqLcRPpQH2-33" edge="1">
          <mxGeometry width="100" relative="1" as="geometry">
            <mxPoint x="-2792" y="474" as="sourcePoint" />
            <mxPoint x="-2692" y="474" as="targetPoint" />
          </mxGeometry>
        </mxCell>
        <mxCell id="Rqc-IWWvBPbqLcRPpQH2-71" value="" style="group" parent="1" vertex="1" connectable="0">
          <mxGeometry x="-2842" y="234" width="200" height="400" as="geometry" />
        </mxCell>
        <mxCell id="Rqc-IWWvBPbqLcRPpQH2-33" value="" style="sketch=0;points=[[0,0,0],[0.25,0,0],[0.5,0,0],[0.75,0,0],[1,0,0],[1,0.25,0],[1,0.5,0],[1,0.75,0],[1,1,0],[0.75,1,0],[0.5,1,0],[0.25,1,0],[0,1,0],[0,0.75,0],[0,0.5,0],[0,0.25,0]];rounded=1;absoluteArcSize=1;arcSize=2;html=1;strokeColor=#000000;gradientColor=none;shadow=0;dashed=0;fontSize=12;fontColor=#9E9E9E;align=left;verticalAlign=top;spacing=10;spacingTop=-4;fillColor=#FFFFFF;" parent="Rqc-IWWvBPbqLcRPpQH2-71" vertex="1">
          <mxGeometry width="200" height="400" as="geometry" />
        </mxCell>
        <mxCell id="Rqc-IWWvBPbqLcRPpQH2-5" value="" style="sketch=0;aspect=fixed;html=1;points=[];align=center;image;fontSize=12;image=img/lib/mscae/API_Management.svg;shadow=0;" parent="Rqc-IWWvBPbqLcRPpQH2-71" vertex="1">
          <mxGeometry x="11" y="18.181818181818183" width="40.90909090909091" height="34.36363636363636" as="geometry" />
        </mxCell>
        <mxCell id="Rqc-IWWvBPbqLcRPpQH2-6" value="&lt;font style=&quot;font-size: 18px&quot;&gt;WEB API&lt;br&gt;&lt;/font&gt;" style="text;strokeColor=none;fillColor=none;html=1;fontSize=24;fontStyle=1;verticalAlign=middle;align=center;shadow=0;" parent="Rqc-IWWvBPbqLcRPpQH2-71" vertex="1">
          <mxGeometry x="50" y="181.81636363636366" width="100" height="36.36363636363637" as="geometry" />
        </mxCell>
      </root>
    </mxGraphModel>
  </diagram>
</mxfile>
